<svg width="22" height="20" viewBox="0 0 22 20" fill="none" xmlns="http://www.w3.org/2000/svg">
<path fill-rule="evenodd" clip-rule="evenodd" d="M8.36957 0.919922C5.68418 0.919922 3.50725 3.09686 3.50725 5.78224C3.50725 8.46763 5.68418 10.6446 8.36957 10.6446C11.055 10.6446 13.2319 8.46763 13.2319 5.78224C13.2319 3.09686 11.055 0.919922 8.36957 0.919922ZM14.8434 1.07615C14.1184 0.890522 13.3801 1.32777 13.1945 2.05277C13.0089 2.77777 13.4461 3.51597 14.1711 3.7016C14.6341 3.82014 15.0444 4.08937 15.3374 4.46687C15.6304 4.84437 15.7895 5.30865 15.7895 5.78652C15.7895 6.2644 15.6304 6.72868 15.3374 7.10618C15.0444 7.48367 14.6341 7.75291 14.1711 7.87144C13.4461 8.05707 13.0089 8.79528 13.1945 9.52028C13.3801 10.2453 14.1184 10.6825 14.8434 10.4969C15.8893 10.2291 16.8163 9.62082 17.4783 8.76796C18.1403 7.9151 18.4996 6.86616 18.4996 5.78652C18.4996 4.70688 18.1403 3.65794 17.4783 2.80508C16.8163 1.95222 15.8893 1.34394 14.8434 1.07615ZM6.21739 5.78224C6.21739 4.59363 7.18095 3.63007 8.36957 3.63007C9.55818 3.63007 10.5217 4.59363 10.5217 5.78224C10.5217 6.97085 9.55818 7.93441 8.36957 7.93441C7.18095 7.93441 6.21739 6.97085 6.21739 5.78224ZM4.86232 11.4417C3.57275 11.4417 2.336 11.9539 1.42414 12.8658C0.512279 13.7777 0 15.0144 0 16.304V18.0576C0 18.806 0.606687 19.4127 1.35507 19.4127C2.10346 19.4127 2.71014 18.806 2.71014 18.0576V16.304C2.71014 15.7332 2.93689 15.1858 3.3405 14.7822C3.74411 14.3786 4.29153 14.1518 4.86232 14.1518H11.8768C12.4476 14.1518 12.995 14.3786 13.3986 14.7822C13.8022 15.1858 14.029 15.7332 14.029 16.304V18.0576C14.029 18.806 14.6357 19.4127 15.3841 19.4127C16.1324 19.4127 16.7391 18.806 16.7391 18.0576V16.304C16.7391 15.0144 16.2269 13.7777 15.315 12.8658C14.4031 11.9539 13.1664 11.4417 11.8768 11.4417H4.86232ZM18.3533 11.5986C17.6286 11.4115 16.8895 11.8472 16.7024 12.5718C16.5154 13.2965 16.9511 14.0356 17.6757 14.2227C18.1374 14.3419 18.5465 14.6111 18.8386 14.9879C19.1307 15.3647 19.2895 15.8281 19.2899 16.3049V18.0575C19.2899 18.8059 19.8965 19.4126 20.6449 19.4126C21.3933 19.4126 22 18.8059 22 18.0575V16.3029C21.9992 15.2255 21.6406 14.179 20.9806 13.3275C20.3205 12.476 19.3964 11.8679 18.3533 11.5986Z" fill="#454545"/>
</svg>
