<svg width="22" height="20" viewBox="0 0 22 20" fill="none" xmlns="http://www.w3.org/2000/svg">
<path fill-rule="evenodd" clip-rule="evenodd" d="M0.916667 0C0.410406 0 0 0.410406 0 0.916667V16.0417C0 16.5479 0.410406 16.9583 0.916667 16.9583H7.975C8.53417 16.9583 9.07043 17.1805 9.46582 17.5758C9.86121 17.9712 10.0833 18.5075 10.0833 19.0667C10.0833 19.5729 10.4937 19.9833 11 19.9833C11.5063 19.9833 11.9167 19.5729 11.9167 19.0667C11.9167 18.5075 12.1388 17.9712 12.5342 17.5758C12.9296 17.1805 13.4658 16.9583 14.025 16.9583H21.0833C21.5896 16.9583 22 16.5479 22 16.0417V0.916667C22 0.410406 21.5896 0 21.0833 0H15.0333C13.7205 0 12.4615 0.521516 11.5332 1.44982C11.3369 1.64608 11.1588 1.85713 11 2.08034C10.8412 1.85713 10.6631 1.64608 10.4668 1.44982C9.53854 0.521516 8.27949 0 6.96667 0H0.916667ZM11.9167 15.7362C12.5425 15.3401 13.2726 15.125 14.025 15.125H20.1667V1.83333H15.0333C14.2067 1.83333 13.414 2.1617 12.8295 2.74618C12.245 3.33067 11.9167 4.12341 11.9167 4.95V15.7362ZM10.0833 15.7362V4.95C10.0833 4.12341 9.75497 3.33067 9.17048 2.74618C8.586 2.1617 7.79326 1.83333 6.96667 1.83333H1.83333V15.125H7.975C8.72736 15.125 9.45754 15.3401 10.0833 15.7362Z" fill="#454545"/>
</svg>
