<svg width="19" height="20" viewBox="0 0 19 20" fill="none" xmlns="http://www.w3.org/2000/svg">
<path d="M5 8H6C6.26522 8 6.51957 7.89464 6.70711 7.70711C6.89464 7.51957 7 7.26522 7 7C7 6.73478 6.89464 6.48043 6.70711 6.29289C6.51957 6.10536 6.26522 6 6 6H5C4.73478 6 4.48043 6.10536 4.29289 6.29289C4.10536 6.48043 4 6.73478 4 7C4 7.26522 4.10536 7.51957 4.29289 7.70711C4.48043 7.89464 4.73478 8 5 8ZM9 14H5C4.73478 14 4.48043 14.1054 4.29289 14.2929C4.10536 14.4804 4 14.7348 4 15C4 15.2652 4.10536 15.5196 4.29289 15.7071C4.48043 15.8946 4.73478 16 5 16H9C9.26522 16 9.51957 15.8946 9.70711 15.7071C9.89464 15.5196 10 15.2652 10 15C10 14.7348 9.89464 14.4804 9.70711 14.2929C9.51957 14.1054 9.26522 14 9 14ZM9 10H5C4.73478 10 4.48043 10.1054 4.29289 10.2929C4.10536 10.4804 4 10.7348 4 11C4 11.2652 4.10536 11.5196 4.29289 11.7071C4.48043 11.8946 4.73478 12 5 12H9C9.26522 12 9.51957 11.8946 9.70711 11.7071C9.89464 11.5196 10 11.2652 10 11C10 10.7348 9.89464 10.4804 9.70711 10.2929C9.51957 10.1054 9.26522 10 9 10ZM15.92 7.38C15.9966 7.19789 16.0175 6.99718 15.9801 6.80319C15.9428 6.6092 15.8488 6.43062 15.71 6.29L9.71 0.29C9.62734 0.212216 9.53282 0.148081 9.43 0.0999999C9.40015 0.0957601 9.36985 0.0957601 9.34 0.0999999L9.06 0H3C2.20435 0 1.44129 0.316071 0.87868 0.87868C0.316071 1.44129 0 2.20435 0 3V17C0 17.7956 0.316071 18.5587 0.87868 19.1213C1.44129 19.6839 2.20435 20 3 20H9C9.26522 20 9.51957 19.8946 9.70711 19.7071C9.89464 19.5196 10 19.2652 10 19C10 18.7348 9.89464 18.4804 9.70711 18.2929C9.51957 18.1054 9.26522 18 9 18H3C2.73478 18 2.48043 17.8946 2.29289 17.7071C2.10536 17.5196 2 17.2652 2 17V3C2 2.73478 2.10536 2.48043 2.29289 2.29289C2.48043 2.10536 2.73478 2 3 2H8V5C8 5.79565 8.31607 6.55871 8.87868 7.12132C9.44129 7.68393 10.2044 8 11 8H15C15.1974 7.99901 15.3901 7.93961 15.5539 7.82928C15.7176 7.71895 15.845 7.56262 15.92 7.38V7.38ZM11 6C10.7348 6 10.4804 5.89464 10.2929 5.70711C10.1054 5.51957 10 5.26522 10 5V3.41L12.59 6H11ZM18 10H13C12.7348 10 12.4804 10.1054 12.2929 10.2929C12.1054 10.4804 12 10.7348 12 11V19C12.0005 19.1809 12.05 19.3583 12.1434 19.5133C12.2367 19.6682 12.3703 19.795 12.53 19.88C12.6864 19.9603 12.8611 19.9979 13.0367 19.9892C13.2123 19.9804 13.3824 19.9255 13.53 19.83L15.5 18.53L17.5 19.83C17.6494 19.9164 17.8186 19.9627 17.9912 19.9643C18.1637 19.9659 18.3338 19.9229 18.4848 19.8393C18.6358 19.7558 18.7626 19.6346 18.8529 19.4875C18.9432 19.3404 18.9938 19.1725 19 19V11C19 10.7348 18.8946 10.4804 18.7071 10.2929C18.5196 10.1054 18.2652 10 18 10ZM17 17.12L16.06 16.49C15.8946 16.3782 15.6996 16.3185 15.5 16.3185C15.3004 16.3185 15.1054 16.3782 14.94 16.49L14 17.12V12H17V17.12Z" fill="#454545"/>
</svg>
