<svg width="22" height="14" viewBox="0 0 22 14" fill="none" xmlns="http://www.w3.org/2000/svg">
<path d="M12.3056 3.03163C12.3056 2.48043 12.2963 1.86294 12.3079 1.24661C12.3219 0.466323 12.7335 -0.00231714 13.3789 8.61631e-06C14.029 0.00349725 14.4476 0.479114 14.4488 1.25127C14.4534 4.09799 14.4523 6.94472 14.4499 9.79144C14.4499 10.5508 14.2022 10.9601 13.6603 11.1171C13.1359 11.2695 12.7382 11.0474 12.3242 10.3671C11.4474 11.6509 8.86812 11.4462 8.05875 9.5077C7.55174 8.29366 7.51104 7.01565 7.67151 5.73881C7.75059 5.11551 7.90758 4.47593 8.16923 3.90844C8.65066 2.86418 9.8554 2.46066 10.9648 2.47229C11.6788 2.47926 11.8579 2.76533 12.3033 3.03163H12.3056ZM12.2416 5.50042C12.1009 4.84921 11.7346 4.41895 10.9892 4.41895C10.3752 4.41895 9.90773 4.75037 9.8147 5.38065C9.67399 6.32955 9.6205 7.19241 9.78214 8.15178C9.88796 8.78206 10.4054 9.20419 11.0206 9.18558C11.623 9.16698 12.1823 8.78904 12.2323 8.1576C12.2893 7.45173 12.3335 5.93069 12.2405 5.50159L12.2416 5.50042Z" fill="#454545"/>
<path d="M2.13131 10.3764C2.13131 11.1253 2.13596 11.7451 2.13014 12.3637C2.12317 13.1277 1.69872 13.6057 1.04983 13.5975C0.420714 13.5894 0.00672932 13.1324 0.00440357 12.3916C-0.0025737 9.48676 -0.000247947 6.58306 0.00440357 3.67935C0.00440357 3.01767 0.281169 2.61764 0.792835 2.47577C1.30566 2.3339 1.94408 2.52229 2.01502 3.08396C2.429 2.74905 3.07789 2.52578 3.62095 2.46879C5.13502 2.31064 6.2979 3.2549 6.63514 4.84223C6.9119 6.14349 6.91306 7.46219 6.63281 8.76229C6.39791 9.84726 5.81065 10.6892 4.69197 11.0206C3.77329 11.2927 2.89764 11.245 2.13247 10.3764H2.13131ZM4.56637 5.47716C4.42334 4.85153 4.05936 4.45034 3.46164 4.41662C2.82438 4.38057 2.29527 4.72245 2.23946 5.38529C2.16038 6.31908 2.15922 7.26916 2.23713 8.20411C2.29295 8.87393 2.81275 9.21349 3.45117 9.18325C4.05006 9.15534 4.41636 8.75648 4.56521 8.13317C4.63731 7.83199 4.71406 6.12488 4.56637 5.47716Z" fill="#454545"/>
<path d="M21.7802 4.03286C21.8825 4.48173 21.6511 4.91665 21.2732 5.02479C20.5092 5.24342 20.0114 4.88409 19.7219 4.605C18.9869 3.89564 17.8578 4.36544 17.6671 5.36552C17.5113 6.07255 17.6113 7.70407 17.6973 8.19713C17.7834 8.69019 18.1357 9.01463 18.6474 9.08324C19.1904 9.1565 19.6277 8.98788 19.9103 8.46924C20.3871 7.59243 20.915 7.3459 21.4964 7.6936C22.0697 8.03665 22.1651 8.86462 21.7185 9.617C21.1034 10.6543 19.5591 11.2625 18.1369 11.0276C16.7124 10.7927 15.8821 10.0368 15.5751 8.62274C15.3006 7.35869 15.296 6.07952 15.5727 4.81664C15.9716 2.99441 17.5089 1.98503 19.4544 2.4153C20.6685 2.68508 21.6337 3.38397 21.7813 4.03286H21.7802Z" fill="#454545"/>
</svg>
