<svg width="24" height="16" viewBox="0 0 24 16" fill="none" xmlns="http://www.w3.org/2000/svg">
<path d="M1 14.6315H6.7307M16.9713 14.6314H22.9975M16.7056 8.02501C15.6802 6.3902 13.9008 5.31986 11.8602 5.31986C9.81955 5.31986 8.01165 6.3902 6.97931 8.02501M22.2155 8.13135C20.5326 3.94077 16.5897 1 11.9939 1C7.39818 1 3.45528 3.94076 1.7723 8.13135" stroke="#454545" stroke-width="0.926157" stroke-linecap="round"/>
<path d="M19.4202 13.4129C19.4182 13.4391 19.3964 13.459 19.3705 13.459C19.2216 13.459 18.9631 13.459 18.5974 13.459C18.1749 13.459 17.8885 13.459 17.7444 13.459C17.7167 13.459 17.6942 13.4364 17.6945 13.4082C17.6961 13.298 17.7077 13.1882 17.7293 13.0801C17.7335 13.0589 17.7508 13.0435 17.7715 13.0383C17.8193 13.0264 17.8641 13.0036 17.9022 12.9713C17.9196 12.9564 17.9333 12.9375 17.9422 12.9162C17.9511 12.8949 17.9549 12.8718 17.9534 12.8486C17.9478 12.777 17.9284 12.7071 17.8962 12.6432L17.8736 12.5934C17.8654 12.5751 17.8474 12.5634 17.8276 12.5635C17.3946 12.5643 17.017 12.582 16.6975 12.6138C16.6877 12.6148 16.6803 12.6232 16.6803 12.6332C16.6803 12.6357 16.6798 12.6382 16.6789 12.6406C16.6622 12.6833 16.6535 12.729 16.6532 12.775C16.6513 12.8384 16.6716 12.9004 16.7104 12.9499C16.7308 12.9764 16.7563 12.9985 16.7852 13.0148C16.8034 13.0252 16.8228 13.033 16.8429 13.0383C16.8641 13.0439 16.8821 13.0596 16.8864 13.0814C16.9071 13.189 16.9186 13.2982 16.9208 13.4079C16.9213 13.4361 16.8986 13.459 16.8708 13.459C16.7477 13.459 16.5632 13.459 16.3192 13.459C16.1236 13.459 15.9742 13.459 15.8691 13.459C15.8416 13.459 15.819 13.4366 15.8194 13.4086C15.821 13.2966 15.8354 13.1851 15.8625 13.0764C15.8673 13.0572 15.8832 13.0431 15.902 13.0378C15.9721 13.0182 16.0342 12.9756 16.0784 12.9161C16.163 12.7895 16.2336 12.6537 16.2891 12.5113L17.3837 9.88204C17.3899 9.8671 17.4027 9.85594 17.4183 9.85246C17.4725 9.84037 17.5277 9.83307 17.5832 9.83069H17.7552C17.7751 9.83069 17.7931 9.84251 17.8014 9.86089L18.9435 12.4162C19.0278 12.6002 19.094 12.7352 19.1422 12.8211C19.1747 12.886 19.2174 12.945 19.2686 12.9959C19.2979 13.0192 19.3316 13.0358 19.3675 13.0446C19.3903 13.0502 19.4096 13.0677 19.4125 13.0914C19.4257 13.198 19.4282 13.3057 19.4202 13.4129ZM17.6254 12.2322C17.6621 12.2322 17.6866 12.1937 17.6716 12.1596L17.5049 11.7813C17.4232 11.5998 17.352 11.4136 17.2916 11.2237C17.276 11.1744 17.2043 11.1744 17.1891 11.2238C17.1306 11.4124 17.0643 11.5984 16.9903 11.7813L16.8454 12.1621C16.8326 12.1959 16.8571 12.2322 16.8927 12.2322H17.6254ZM17.3936 9.40241C17.3936 9.39928 17.3939 9.39612 17.3944 9.39304C17.4297 9.19492 17.4107 9.0686 17.4862 8.86541C17.4921 8.84952 17.5057 8.83781 17.5221 8.83438C17.6738 8.80258 17.8285 8.78697 17.9835 8.7879C18.0718 8.78681 18.16 8.7927 18.2474 8.80558C18.287 8.81144 18.3021 8.8601 18.2747 8.88972C18.0802 9.09912 17.8969 9.31901 17.7256 9.54847C17.7155 9.56194 17.6995 9.56958 17.683 9.56896C17.5463 9.56373 17.5873 9.56794 17.439 9.55148C17.4133 9.54863 17.3936 9.52654 17.3936 9.50028V9.40241Z" fill="#454545"/>
<path d="M22.916 9.83393C22.9459 9.8317 22.9716 9.85551 22.9716 9.88595C22.9716 9.9389 22.9716 9.99268 22.9716 10.0448C22.9684 10.101 22.9602 10.1569 22.947 10.2116C22.9421 10.2319 22.9249 10.2463 22.9047 10.2501C22.8435 10.2618 22.7852 10.2862 22.7336 10.322C22.7307 10.324 22.728 10.3264 22.7257 10.3291C22.6742 10.3868 22.6425 10.4599 22.6353 10.5376C22.6136 10.6937 22.6045 10.8513 22.608 11.009V13.4109C22.608 13.4334 22.5937 13.4534 22.5723 13.4593C22.5176 13.4743 22.4616 13.4841 22.4051 13.4888C22.3417 13.4888 22.2593 13.4888 22.158 13.4888C22.1419 13.4888 22.1267 13.481 22.1172 13.4678L20.4362 11.1504C20.4072 11.1104 20.3448 11.1313 20.3448 11.1809V12.2781C20.3393 12.4339 20.3505 12.5899 20.3781 12.7432C20.3896 12.8263 20.4306 12.9021 20.4934 12.9564C20.4953 12.9581 20.4974 12.9596 20.4996 12.9609C20.5667 13.0014 20.6413 13.0269 20.7186 13.0359C20.7412 13.0385 20.7605 13.0545 20.7651 13.0771C20.7872 13.185 20.798 13.295 20.7973 13.4053C20.7971 13.433 20.7748 13.4548 20.7475 13.4548C20.6027 13.4548 20.4068 13.4548 20.16 13.4548C19.8739 13.4548 19.6656 13.4548 19.5332 13.4548C19.5059 13.4548 19.4835 13.4329 19.4834 13.4052C19.4831 13.2945 19.4948 13.1842 19.5182 13.0761C19.523 13.054 19.542 13.0384 19.5641 13.0356C19.6417 13.026 19.7165 12.9996 19.7835 12.9582C19.7861 12.9566 19.7885 12.9548 19.7906 12.9528C19.8522 12.8956 19.8945 12.8202 19.9115 12.7371C19.9428 12.5863 19.956 12.4322 19.9509 12.2781V10.5143C19.9509 10.5035 19.9475 10.4928 19.9412 10.4841L19.8782 10.3959C19.8536 10.3491 19.8141 10.3122 19.7661 10.2912C19.7002 10.2704 19.6324 10.256 19.5638 10.2484C19.5418 10.246 19.5233 10.2301 19.5187 10.2082C19.4962 10.1 19.4845 9.98987 19.4839 9.87935C19.4837 9.85141 19.5062 9.82913 19.5337 9.82975C19.674 9.83303 19.8905 9.84763 20.1812 9.84763C20.4789 9.84763 20.6461 9.84763 20.756 9.83369C20.7751 9.83127 20.7943 9.8392 20.8056 9.85508L22.1194 11.7082C22.1482 11.7487 22.2112 11.7281 22.2112 11.6781V11.009C22.2165 10.8531 22.2053 10.6972 22.1778 10.5438C22.1647 10.4616 22.1228 10.3871 22.0599 10.3339C22.0577 10.3321 22.0554 10.3305 22.053 10.3292C21.973 10.2836 21.8845 10.2558 21.7935 10.2474C21.7702 10.2453 21.7502 10.2286 21.7459 10.2052C21.7262 10.0976 21.7164 9.9885 21.7165 9.87912C21.7166 9.85125 21.739 9.82913 21.7664 9.82967C21.9142 9.8328 22.1256 9.84763 22.4051 9.84763C22.6239 9.84763 22.7942 9.84306 22.916 9.83393Z" fill="#454545"/>
<path d="M1.21177 13.1806C1.19253 13.17 1.18245 13.148 1.18639 13.1261C1.2348 12.8572 1.2579 12.5841 1.25536 12.3107C1.25514 12.2867 1.27108 12.2655 1.29414 12.2601C1.47497 12.218 1.65996 12.1974 1.84544 12.1986C1.87178 12.1987 1.89316 12.2199 1.89512 12.2466C1.90683 12.406 1.93194 12.5641 1.97019 12.7192C1.99294 12.8159 2.04824 12.9014 2.1265 12.9608C2.21835 13.0122 2.32242 13.0365 2.42709 13.0312C2.5604 13.0419 2.69321 13.0051 2.80283 12.9272C2.84154 12.8984 2.87292 12.8607 2.89437 12.817C2.9158 12.7734 2.92667 12.7252 2.92607 12.6764C2.92484 12.6271 2.91189 12.5788 2.88834 12.5356C2.86479 12.4925 2.83133 12.4558 2.7908 12.4287C2.64954 12.3381 2.50184 12.2584 2.34894 12.1901C2.1585 12.1 1.97378 11.9979 1.79585 11.8843C1.64689 11.7873 1.51901 11.6603 1.42011 11.5112C1.30744 11.3282 1.25093 11.1153 1.25779 10.8995C1.24639 10.7421 1.27302 10.5843 1.33538 10.4398C1.39773 10.2953 1.4939 10.1686 1.6155 10.0706C1.88045 9.88626 2.19647 9.79299 2.51727 9.80458C2.71943 9.8054 2.92095 9.82796 3.11846 9.87186C3.27124 9.89672 3.41876 9.94753 3.55487 10.0221C3.57128 10.0311 3.58107 10.0488 3.58074 10.0678C3.57644 10.3128 3.58745 10.5579 3.6137 10.8016C3.6159 10.822 3.60611 10.842 3.58813 10.8515C3.51354 10.8907 3.43307 10.9173 3.34991 10.9301C3.25595 10.9456 3.1611 10.9545 3.06599 10.9569C3.0396 10.9576 3.01769 10.937 3.01441 10.9104C2.99146 10.724 2.92384 10.546 2.81725 10.3922C2.81566 10.3899 2.81388 10.3877 2.81192 10.3858C2.72721 10.3001 2.61688 10.2456 2.49828 10.2308C2.37831 10.2158 2.25688 10.2423 2.15355 10.3062C2.11649 10.3307 2.08661 10.365 2.06705 10.4053C2.04748 10.4457 2.03895 10.4907 2.04234 10.5355C2.04104 10.5964 2.05531 10.6567 2.08377 10.7103C2.11222 10.7639 2.15388 10.809 2.20466 10.8414C2.36289 10.9468 2.53105 11.0359 2.70664 11.1075C2.90721 11.1967 3.10199 11.2988 3.28979 11.4133C3.44625 11.5121 3.58044 11.6434 3.68356 11.7986C3.79889 11.9804 3.85563 12.1942 3.84588 12.4103C3.85365 12.5643 3.82461 12.718 3.76126 12.858C3.69792 12.9981 3.60216 13.1205 3.48217 13.2147C3.17884 13.4321 2.81266 13.5398 2.44212 13.5205C2.01164 13.5048 1.59066 13.3884 1.21177 13.1806Z" fill="#454545"/>
<path d="M7.88289 13.3851C7.88204 13.4123 7.85989 13.4335 7.83313 13.4335C7.68164 13.4335 7.42482 13.4335 7.05831 13.4335C6.63003 13.4335 6.3385 13.4335 6.18593 13.4335C6.15826 13.4335 6.13572 13.4109 6.13614 13.3827C6.13768 13.2724 6.14935 13.1625 6.17104 13.0544C6.1753 13.0333 6.19258 13.0177 6.21327 13.0127C6.26233 13.0009 6.30832 12.978 6.34779 12.9456C6.36472 12.9302 6.37811 12.9113 6.38702 12.8901C6.39589 12.8689 6.40004 12.8459 6.39919 12.8229C6.39362 12.7512 6.37412 12.6813 6.34172 12.6173L6.31903 12.5674C6.31074 12.5492 6.29277 12.5375 6.27304 12.5376C5.83785 12.5384 5.45833 12.5561 5.13443 12.588C5.12464 12.5889 5.11724 12.5973 5.11724 12.6073C5.11724 12.6098 5.11674 12.6124 5.11581 12.6147C5.099 12.6575 5.09025 12.7031 5.09002 12.7492C5.08844 12.812 5.1076 12.8736 5.14442 12.9241C5.17877 12.9677 5.22596 12.9986 5.27855 13.0125C5.29932 13.018 5.31702 13.0335 5.32135 13.0548C5.34335 13.1628 5.35502 13.2727 5.35625 13.3829C5.35656 13.411 5.33398 13.4335 5.30634 13.4335C5.18469 13.4335 4.99903 13.4335 4.75138 13.4335C4.55499 13.4335 4.40277 13.4335 4.2985 13.4335C4.27115 13.4335 4.24868 13.4114 4.24883 13.3836C4.24945 13.2711 4.26408 13.1591 4.2924 13.0503C4.29736 13.0312 4.3131 13.0175 4.33178 13.0122C4.40155 12.9928 4.4632 12.95 4.50647 12.8904C4.5926 12.7644 4.66365 12.6284 4.71812 12.4853L5.81774 9.85512C5.82403 9.84009 5.83693 9.82889 5.85267 9.8255C5.90715 9.81368 5.96254 9.80638 6.01821 9.80361H6.19427C6.21411 9.80361 6.23212 9.81539 6.24037 9.83373L7.38785 12.3902C7.4695 12.5743 7.53599 12.6971 7.5844 12.7953C7.61892 12.8598 7.66276 12.9187 7.71439 12.9701C7.74407 12.9942 7.77858 13.0111 7.81528 13.0196C7.83755 13.0248 7.85666 13.0412 7.86054 13.064C7.87862 13.17 7.88611 13.2776 7.88289 13.3851ZM6.07948 12.2061C6.1161 12.2061 6.1406 12.1678 6.12578 12.1338L5.96078 11.7551C5.87816 11.5739 5.80599 11.388 5.7446 11.1985C5.72863 11.1491 5.65654 11.1497 5.64141 11.1992C5.5839 11.3878 5.51691 11.5734 5.44075 11.7551L5.29517 12.136C5.28231 12.1698 5.3068 12.2061 5.34239 12.2061H6.07948Z" fill="#454545"/>
<path d="M14.1902 10.5486C14.185 10.496 14.1147 10.4845 14.0935 10.5327L12.2616 14.7078C12.2534 14.7264 12.2353 14.7384 12.2153 14.7384H11.6246C11.5966 14.7384 11.5739 14.7153 11.5739 14.6869V12.9678C11.5739 12.9607 11.5753 12.9537 11.5781 12.9472L13.4121 8.67454C13.4211 8.65351 13.4427 8.64114 13.4652 8.64363C13.6714 8.66666 13.9788 8.66666 14.3798 8.66666C14.7745 8.66666 15.0837 8.65874 15.3098 8.64297C15.3385 8.64094 15.3634 8.66346 15.3636 8.69277C15.3645 8.84582 15.3464 8.99836 15.3098 9.14684C15.3038 9.17115 15.281 9.18672 15.2564 9.18606C15.1911 9.18427 15.1258 9.19324 15.0631 9.21275C14.9888 9.23586 14.9196 9.27328 14.8593 9.32296C14.8561 9.32561 14.8532 9.32865 14.8509 9.33201C14.7499 9.47335 14.7038 9.64759 14.7214 9.8214C14.7214 9.86749 14.7396 9.97496 14.7396 10.1285L14.9664 12.7329C14.9884 13.0198 15.0339 13.3044 15.1024 13.5836C15.1366 13.7406 15.2143 13.8844 15.3262 13.9982C15.4239 14.0757 15.5899 14.1228 15.7217 14.1341C15.7442 14.136 15.7637 14.1517 15.7679 14.1742C15.796 14.3245 15.773 14.478 15.7662 14.6323C15.7649 14.6616 15.7404 14.6847 15.7116 14.683C15.3329 14.6616 15.0149 14.6616 14.7578 14.6616C14.3762 14.6616 14.0793 14.6668 13.8647 14.682C13.8357 14.6841 13.8106 14.6612 13.8106 14.6317C13.8103 14.4787 13.8258 14.3261 13.8571 14.1765C13.8619 14.153 13.8825 14.1367 13.9061 14.1351C13.9757 14.1305 14.0441 14.1137 14.1082 14.0853C14.1831 14.0523 14.2505 14.0042 14.3065 13.944C14.309 13.9412 14.3112 13.9382 14.313 13.935C14.4182 13.7508 14.4638 13.5376 14.4433 13.3256C14.4423 13.1316 14.4302 12.9378 14.407 12.7452L14.1902 10.5486Z" fill="#454545"/>
<path d="M9.45419 10.5486C9.45937 10.496 9.5297 10.4845 9.55085 10.5327L11.3828 14.7078C11.391 14.7264 11.4091 14.7384 11.4291 14.7384H12.0198C12.0478 14.7384 12.0705 14.7153 12.0705 14.6869V12.9678C12.0705 12.9607 12.069 12.9537 12.0662 12.9472L10.2323 8.67454C10.2233 8.65351 10.2016 8.64114 10.1792 8.64363C9.97299 8.66666 9.6656 8.66666 9.26458 8.66666C8.86985 8.66666 8.56066 8.65874 8.33462 8.64297C8.30587 8.64094 8.28099 8.66346 8.28084 8.69277C8.27991 8.84582 8.29796 8.99836 8.33458 9.14684C8.34057 9.17115 8.36334 9.18672 8.38794 9.18606C8.45328 9.18427 8.51858 9.19324 8.58124 9.21275C8.65556 9.23586 8.72478 9.27328 8.78513 9.32296C8.78831 9.32561 8.79115 9.32865 8.79353 9.33201C8.89446 9.47335 8.9406 9.64759 8.92295 9.8214C8.92295 9.86749 8.90479 9.97496 8.90479 10.1285L8.67802 12.7329C8.65598 13.0198 8.61049 13.3044 8.54196 13.5836C8.50776 13.7406 8.43013 13.8844 8.31823 13.9982C8.22045 14.0757 8.05445 14.1228 7.9227 14.1341C7.9002 14.136 7.88066 14.1517 7.87644 14.1742C7.84837 14.3245 7.87141 14.478 7.8782 14.6323C7.87947 14.6616 7.90396 14.6847 7.93283 14.683C8.31151 14.6616 8.62945 14.6616 8.88663 14.6616C9.26819 14.6616 9.56506 14.6668 9.77966 14.682C9.80868 14.6841 9.83375 14.6612 9.83379 14.6317C9.83409 14.4787 9.81854 14.3261 9.78733 14.1765C9.78246 14.153 9.76184 14.1367 9.73831 14.1351C9.66867 14.1305 9.60026 14.1137 9.53611 14.0853C9.46133 14.0523 9.39391 14.0042 9.3379 13.944C9.33537 13.9412 9.33318 13.9382 9.33134 13.935C9.22619 13.7508 9.18058 13.5376 9.20108 13.3256C9.20208 13.1316 9.21417 12.9378 9.2374 12.7452L9.45419 10.5486Z" fill="#454545"/>
<path d="M10.5419 4.18206C10.558 4.21749 10.5387 4.25789 10.5027 4.27134L10.1403 4.4066C9.97084 4.47289 9.84158 4.5285 9.74994 4.56961C9.71366 4.58589 9.67078 4.56931 9.659 4.53082C9.6502 4.50201 9.64326 4.47264 9.63827 4.4429C9.63374 4.41617 9.64671 4.39024 9.66744 4.37317C9.68548 4.35834 9.70222 4.34199 9.71758 4.3243C9.72311 4.3179 9.72752 4.31044 9.7291 4.30208C9.73086 4.29276 9.73113 4.28319 9.7299 4.27373C9.72806 4.25999 9.72307 4.24689 9.71528 4.23548C9.68917 4.19267 9.65857 4.15281 9.62406 4.11657L9.51695 4.01108C9.49703 3.99144 9.46762 3.98543 9.44179 3.99577C9.20319 4.0913 8.98652 4.18403 8.78655 4.27754C8.75837 4.29073 8.74205 4.32112 8.74624 4.35238L8.75472 4.41629C8.75484 4.46827 8.76171 4.52001 8.77518 4.57018C8.80217 4.64106 8.8563 4.67257 8.93519 4.66502C8.96464 4.6622 8.99497 4.67253 9.01036 4.69821C9.02226 4.71809 9.03336 4.73844 9.04364 4.75921C9.06418 4.80068 9.03646 4.85016 8.99331 4.86526C8.92744 4.88825 8.84475 4.92489 8.74378 4.96395C8.67403 4.98955 8.60558 5.01867 8.53874 5.05113C8.50169 5.06912 8.45655 5.0532 8.44449 5.01328C8.4362 4.98573 8.42963 4.95767 8.42484 4.92926C8.41996 4.90023 8.43631 4.87299 8.45781 4.85324C8.4661 4.8456 8.47374 4.83721 8.48062 4.82811C8.49724 4.8061 8.50887 4.78068 8.51471 4.75363C8.53171 4.65615 8.53962 4.55727 8.53824 4.45829L8.55782 2.63585C8.55809 2.60925 8.57275 2.58496 8.59598 2.57269L8.64439 2.5471L8.6956 2.52418C8.72201 2.51235 8.75284 2.51799 8.77357 2.53843L10.0752 3.82265C10.1573 3.90468 10.2191 3.95983 10.2617 3.9964C10.2915 4.02433 10.3266 4.0459 10.3647 4.05985C10.3689 4.06136 10.3732 4.06241 10.3775 4.06285C10.3882 4.06393 10.3988 4.06398 10.4094 4.06303C10.4412 4.0602 10.4756 4.06708 10.4933 4.09399C10.5118 4.12203 10.528 4.15148 10.5419 4.18206ZM9.25536 3.87155C9.30278 3.85244 9.31544 3.79023 9.27936 3.75357L9.03589 3.50604C8.99047 3.46047 8.94633 3.41366 8.90348 3.36567C8.85484 3.31118 8.75138 3.35402 8.7528 3.4276C8.75399 3.49109 8.75357 3.55406 8.75307 3.61629L8.75468 3.96766C8.75495 4.01843 8.80536 4.05305 8.85177 4.03433L9.25536 3.87155Z" fill="#454545"/>
<path d="M13.1583 2.23159C13.2777 2.33751 13.3692 2.47172 13.4246 2.62218C13.4799 2.77264 13.5119 2.96899 13.5082 3.14969C13.5021 3.4503 13.4027 3.63386 13.2383 3.85004C13.1101 4.00916 12.9374 4.1255 12.7428 4.18386C12.5694 4.23523 12.3891 4.25892 12.2084 4.25407L11.3466 4.24146C11.3083 4.2409 11.2769 4.2094 11.2799 4.17053C11.2819 4.14317 11.2854 4.11595 11.2904 4.08897C11.2963 4.05654 11.3254 4.03532 11.3574 4.02984C11.387 4.02477 11.4159 4.01537 11.443 4.00186C11.4606 3.99132 11.4758 3.97714 11.4876 3.96025C11.4994 3.94337 11.5076 3.92415 11.5115 3.90385C11.5292 3.83233 11.5374 3.75876 11.536 3.68507L11.5649 2.50081C11.5708 2.43373 11.5694 2.36619 11.5606 2.29943C11.5513 2.26088 11.5284 2.22707 11.4963 2.20427C11.4702 2.18878 11.4422 2.17725 11.4131 2.16996C11.3796 2.16158 11.3508 2.13575 11.3487 2.10077C11.347 2.07415 11.3463 2.04748 11.3466 2.02082C11.3471 1.98203 11.3799 1.95266 11.418 1.95429L11.94 1.9765L12.268 1.96946C12.5843 1.96266 12.8951 2.05416 13.1583 2.23159ZM12.7477 3.86938C12.751 3.86625 12.754 3.86277 12.7565 3.85902C12.9015 3.64876 12.967 3.39177 12.9721 3.13853C12.9776 2.86798 12.9107 2.62338 12.7634 2.41215C12.6992 2.33796 12.6198 2.27875 12.5308 2.23862C12.444 2.19954 12.3501 2.17947 12.2552 2.1797C12.2501 2.17972 12.2451 2.17923 12.2401 2.17831C12.1998 2.17079 12.1586 2.16937 12.118 2.17402C12.0863 2.17765 12.0643 2.20616 12.0634 2.23859L12.0257 3.66617C12.0152 3.74005 12.0168 3.81517 12.0304 3.88853C12.0356 3.91071 12.045 3.93162 12.0583 3.95007C12.0715 3.96852 12.0882 3.98414 12.1074 3.99601C12.1614 4.01947 12.2197 4.0311 12.2785 4.03011C12.3646 4.03888 12.4517 4.02863 12.5336 4.00006C12.6133 3.97224 12.6862 3.92769 12.7477 3.86938Z" fill="#454545"/>
<path d="M15.2086 3.0503C15.2177 3.01478 15.2151 2.9773 15.2011 2.94358C15.1992 2.93893 15.1966 2.93462 15.1935 2.93067C15.1748 2.90677 15.1537 2.88502 15.1304 2.86579C15.1078 2.84711 15.0946 2.81789 15.1024 2.78939C15.1104 2.76047 15.1206 2.73222 15.1329 2.70488C15.1488 2.66922 15.1919 2.65829 15.2255 2.67752C15.3207 2.73204 15.4491 2.80297 15.6106 2.89031L15.9821 3.08218C16.0164 3.0999 16.0308 3.14241 16.0112 3.17602C16.0045 3.1875 15.9974 3.19881 15.9901 3.20993C15.9812 3.22584 15.9708 3.24084 15.9591 3.25474C15.9414 3.27582 15.9119 3.27914 15.8858 3.27135C15.8532 3.26166 15.8194 3.2568 15.7853 3.25698C15.7468 3.26097 15.7112 3.27952 15.6856 3.30891C15.6406 3.36138 15.6029 3.4198 15.5735 3.48256L15.0166 4.54008C14.983 4.59966 14.957 4.66336 14.9394 4.72961C14.9339 4.74933 14.9322 4.76996 14.9346 4.7903C14.9369 4.81067 14.9433 4.83034 14.9532 4.84821C14.9705 4.87334 14.991 4.8959 15.0142 4.91537C15.0394 4.9366 15.0537 4.97039 15.0423 5.00165C15.0335 5.02592 15.0236 5.04981 15.0128 5.07322C14.9954 5.1106 14.9493 5.12145 14.9145 5.10007C14.8262 5.04586 14.7106 4.9821 14.5683 4.90464L14.1641 4.6977C14.1289 4.6797 14.1146 4.63581 14.1356 4.60191C14.1504 4.57791 14.1664 4.55468 14.1836 4.5323C14.2024 4.50778 14.2352 4.50121 14.2647 4.50932C14.2932 4.51712 14.3225 4.5214 14.3521 4.52201C14.3564 4.5221 14.3608 4.52171 14.3651 4.52075C14.4012 4.51258 14.4341 4.49353 14.4592 4.46604C14.5036 4.41306 14.5412 4.35473 14.5713 4.2924L15.1331 3.23162C15.1661 3.1748 15.1915 3.11384 15.2086 3.0503Z" fill="#454545"/>
<path d="M16.3499 6.04264C16.2862 5.85775 16.28 5.65756 16.332 5.46892C16.3846 5.26447 16.4873 5.07669 16.6306 4.92286C16.7621 4.76076 16.9339 4.63694 17.1283 4.56416C17.3104 4.50009 17.5067 4.48916 17.6946 4.53263C17.8903 4.57864 18.0707 4.67546 18.218 4.81352C18.3745 4.94733 18.494 5.12001 18.5647 5.31458C18.6279 5.49588 18.6406 5.69123 18.6014 5.87937C18.5543 6.08135 18.4562 6.26753 18.3167 6.41976C18.1808 6.57976 18.0098 6.70542 17.8172 6.7867C17.6326 6.85679 17.4324 6.87419 17.2386 6.83708C17.036 6.79287 16.8483 6.69597 16.6941 6.55603C16.5361 6.41902 16.4172 6.24178 16.3499 6.04264ZM17.3354 6.51022C17.5464 6.43077 17.7332 6.297 17.8773 6.12217C17.9916 5.99507 18.0832 5.84897 18.1483 5.6903C18.2104 5.56277 18.2394 5.42139 18.2326 5.27942C18.2198 5.1524 18.1608 5.03474 18.0671 4.94913C18.0074 4.89644 17.9352 4.86023 17.8576 4.844C17.7799 4.82776 17.6995 4.83202 17.6239 4.85641C17.417 4.92821 17.2344 5.05796 17.0976 5.23056C16.9803 5.36078 16.8829 5.50794 16.8087 5.6672C16.7488 5.79554 16.7199 5.93634 16.7243 6.07811C16.7275 6.14387 16.744 6.20826 16.7727 6.2673C16.8014 6.32638 16.8418 6.37887 16.8913 6.4216C16.9502 6.47604 17.0228 6.51307 17.1011 6.52868C17.1794 6.54433 17.2604 6.53793 17.3354 6.51022Z" fill="#454545"/>
<path d="M7.40911 5.4032C7.41407 5.40316 7.41902 5.40258 7.42382 5.40133C7.46451 5.39075 7.50263 5.37245 7.53619 5.34759C7.56816 5.32391 7.61408 5.31958 7.64744 5.34119C7.68057 5.36266 7.71696 5.38447 7.74553 5.40886C7.77067 5.43028 7.76691 5.4674 7.74357 5.49085C7.61097 5.62427 7.45188 5.7724 7.33652 5.91944C7.31878 5.94208 7.28995 5.95285 7.26239 5.94563C7.14634 5.91519 7.01831 5.87468 6.8783 5.82419L6.79518 5.79234C6.69771 5.75722 6.59805 5.72881 6.49685 5.70723C6.41819 5.69693 6.3388 5.69389 6.25964 5.69822C6.24087 5.69923 6.22344 5.70833 6.2112 5.72284L6.1758 5.76483L6.16601 5.77451C6.1368 5.80347 6.13756 5.85143 6.16766 5.87941L6.39336 6.08896C6.44583 6.14157 6.50338 6.18875 6.56519 6.2298C6.59782 6.2529 6.6379 6.26269 6.67736 6.25723C6.69955 6.25103 6.72055 6.2415 6.73975 6.22906C6.76605 6.212 6.79956 6.20502 6.82605 6.22176C6.84977 6.2367 6.87254 6.25321 6.89419 6.27108C6.9249 6.29641 6.9241 6.34293 6.89599 6.37126C6.81004 6.45781 6.71165 6.56267 6.60012 6.68356C6.49056 6.80231 6.40982 6.89199 6.33869 6.97499C6.31254 7.00551 6.26667 7.00898 6.23914 6.97979C6.22179 6.96141 6.20521 6.94229 6.18943 6.9225C6.16808 6.89573 6.17188 6.85765 6.19004 6.82853C6.20421 6.80575 6.21538 6.78108 6.22313 6.75517C6.22444 6.75088 6.22525 6.74647 6.22544 6.74198C6.22709 6.70382 6.21511 6.66624 6.19162 6.63615C6.15219 6.5789 6.10612 6.52665 6.05437 6.48048L5.18492 5.63926C5.13724 5.59048 5.0838 5.54778 5.02583 5.51212C5.00951 5.50092 4.99082 5.49382 4.97124 5.49132C4.95166 5.48886 4.93177 5.49112 4.91327 5.49795C4.8829 5.50923 4.85415 5.52445 4.82778 5.54314C4.80317 5.56062 4.7708 5.56577 4.74539 5.5495C4.72182 5.53444 4.69921 5.51789 4.6777 5.49998C4.64807 5.47532 4.64776 5.4306 4.67407 5.40231L4.9555 5.09972L5.12019 4.90975L5.37721 4.62185C5.50797 4.45891 5.69132 4.34769 5.89517 4.30767C5.97613 4.29506 6.0589 4.30152 6.13703 4.32655C6.21511 4.35158 6.28648 4.39451 6.34544 4.45199C6.4618 4.55516 6.53885 4.6961 6.56338 4.85047C6.57383 4.94194 6.56619 5.034 6.54146 5.12141C6.52384 5.18385 6.58181 5.26116 6.64573 5.25979C6.67498 5.25917 6.70435 5.26034 6.73361 5.26338C6.87139 5.28574 7.00779 5.31622 7.14211 5.35462C7.22738 5.3874 7.31794 5.40387 7.40911 5.4032ZM6.19995 5.24711C6.20006 5.2475 6.2006 5.24742 6.2006 5.24703C6.20221 5.18225 6.18893 5.11798 6.16183 5.05921C6.13518 5.00146 6.09587 4.95061 6.04692 4.91049C6.04412 4.90819 6.04144 4.90569 6.03894 4.90304C5.95671 4.81578 5.84446 4.7637 5.72526 4.75763C5.66633 4.76056 5.60874 4.77613 5.55626 4.80329C5.50378 4.83049 5.45764 4.86866 5.42094 4.91529C5.38796 4.94928 5.35944 4.98737 5.33602 5.02854C5.32063 5.05562 5.32765 5.08945 5.35034 5.1106L5.90765 5.63102C5.93402 5.65565 5.97437 5.65643 6.00162 5.63278L6.04696 5.59348C6.13741 5.50041 6.19146 5.37741 6.19926 5.24719C6.19926 5.2468 6.19983 5.24672 6.19995 5.24711Z" fill="#454545"/>
</svg>
