<svg width="21" height="16" viewBox="0 0 21 16" fill="none" xmlns="http://www.w3.org/2000/svg">
<path d="M10.43 0.0997878C10.2676 0.0295299 10.0895 0.00361978 9.91379 0.0247017C9.73811 0.0457836 9.57116 0.113103 9.43 0.219788L4.65 3.99979H1C0.734784 3.99979 0.48043 4.10514 0.292893 4.29268C0.105357 4.48022 0 4.73457 0 4.99979V10.9998C0 11.265 0.105357 11.5194 0.292893 11.7069C0.48043 11.8944 0.734784 11.9998 1 11.9998H4.65L9.38 15.7798C9.55594 15.9209 9.77444 15.9985 10 15.9998C10.1494 16.0023 10.297 15.9679 10.43 15.8998C10.6002 15.8187 10.744 15.6912 10.8448 15.532C10.9457 15.3728 10.9995 15.1883 11 14.9998V0.999788C10.9995 0.811302 10.9457 0.626804 10.8448 0.467567C10.744 0.308329 10.6002 0.180836 10.43 0.0997878V0.0997878ZM9 12.9198L5.62 10.2198C5.44406 10.0786 5.22556 10.0011 5 9.99979H2V5.99979H5C5.22556 5.99848 5.44406 5.92095 5.62 5.77979L9 3.07979V12.9198ZM17.66 2.33979C17.4717 2.15148 17.2163 2.0457 16.95 2.0457C16.6837 2.0457 16.4283 2.15148 16.24 2.33979C16.0517 2.52809 15.9459 2.78349 15.9459 3.04979C15.9459 3.31609 16.0517 3.57148 16.24 3.75979C16.8289 4.34773 17.289 5.05172 17.5911 5.82704C17.8933 6.60236 18.0309 7.43205 17.9951 8.2634C17.9594 9.09475 17.7511 9.90958 17.3835 10.6561C17.016 11.4026 16.4971 12.0646 15.86 12.5998C15.7053 12.7321 15.5946 12.9085 15.5428 13.1054C15.491 13.3022 15.5005 13.5103 15.5701 13.7016C15.6396 13.8929 15.766 14.0584 15.9321 14.1761C16.0983 14.2937 16.2964 14.3578 16.5 14.3598C16.7337 14.3602 16.9601 14.2789 17.14 14.1298C17.9909 13.4171 18.6843 12.5351 19.1759 11.5399C19.6675 10.5447 19.9466 9.45816 19.9955 8.34926C20.0444 7.24037 19.862 6.13342 19.4599 5.09883C19.0579 4.06424 18.4449 3.12464 17.66 2.33979V2.33979ZM14.83 5.16979C14.7368 5.07655 14.6261 5.00259 14.5042 4.95213C14.3824 4.90167 14.2519 4.8757 14.12 4.8757C13.9881 4.8757 13.8576 4.90167 13.7358 4.95213C13.6139 5.00259 13.5032 5.07655 13.41 5.16979C13.3168 5.26303 13.2428 5.37372 13.1923 5.49554C13.1419 5.61736 13.1159 5.74793 13.1159 5.87979C13.1159 6.01165 13.1419 6.14221 13.1923 6.26404C13.2428 6.38586 13.3168 6.49655 13.41 6.58979C13.7856 6.96314 13.9978 7.47021 14 7.99979C14.0002 8.29114 13.9368 8.57902 13.8142 8.8433C13.6915 9.10758 13.5126 9.34187 13.29 9.52979C13.1887 9.61374 13.105 9.71684 13.0437 9.83319C12.9823 9.94953 12.9445 10.0768 12.9325 10.2078C12.9204 10.3388 12.9343 10.4709 12.9733 10.5965C13.0124 10.7221 13.0758 10.8387 13.16 10.9398C13.2447 11.0403 13.3483 11.1232 13.465 11.1836C13.5817 11.2441 13.7092 11.2809 13.8401 11.2921C13.9711 11.3032 14.1029 11.2884 14.2282 11.2486C14.3534 11.2087 14.4696 11.1446 14.57 11.0598C15.0171 10.6849 15.3768 10.2167 15.6238 9.68813C15.8709 9.15952 15.9992 8.58327 16 7.99979C15.9944 6.9399 15.5744 5.92424 14.83 5.16979V5.16979Z" fill="#454545"/>
</svg>
