<svg width="23" height="18" viewBox="0 0 23 18" fill="none" xmlns="http://www.w3.org/2000/svg">
<path d="M11 10.9995C12.1046 10.9995 13 10.1041 13 8.99951C13 7.89494 12.1046 6.99951 11 6.99951C9.89543 6.99951 9 7.89494 9 8.99951C9 10.1041 9.89543 10.9995 11 10.9995Z" stroke="#454545" stroke-width="2" stroke-linecap="round" stroke-linejoin="round"/>
<path d="M3.92982 16.0697C2.05511 14.1944 1.00195 11.6513 1.00195 8.99969C1.00195 6.34805 2.05511 3.80496 3.92982 1.92969" stroke="#454545" stroke-width="2" stroke-linecap="round" stroke-linejoin="round"/>
<path d="M18.1249 1.92982C19.9996 3.8051 21.0527 6.34818 21.0527 8.99982C21.0527 11.6515 19.9996 14.1945 18.1249 16.0698" stroke="#454545" stroke-width="2" stroke-linecap="round" stroke-linejoin="round"/>
<path d="M15.5 4.875C16.4604 5.96913 17 7.4529 17 9C17 10.5471 16.4604 12.0309 15.5 13.125" stroke="#454545" stroke-width="2" stroke-linecap="round" stroke-linejoin="round"/>
<path d="M6.5 13.125C5.53955 12.0309 5 10.5471 5 9C5 7.4529 5.53955 5.96913 6.5 4.875" stroke="#454545" stroke-width="2" stroke-linecap="round" stroke-linejoin="round"/>
</svg>
