<svg width="17" height="20" viewBox="0 0 17 20" fill="none" xmlns="http://www.w3.org/2000/svg">
<path d="M16.5 6.94C16.4896 6.84813 16.4695 6.75763 16.44 6.67V6.58C16.3919 6.47718 16.3278 6.38267 16.25 6.3V6.3L10.25 0.3C10.1673 0.222216 10.0728 0.158081 9.97 0.11H9.87C9.77276 0.058003 9.66826 0.020922 9.56 0H3.5C2.70435 0 1.94129 0.316071 1.37868 0.87868C0.816071 1.44129 0.5 2.20435 0.5 3V17C0.5 17.7956 0.816071 18.5587 1.37868 19.1213C1.94129 19.6839 2.70435 20 3.5 20H13.5C14.2956 20 15.0587 19.6839 15.6213 19.1213C16.1839 18.5587 16.5 17.7956 16.5 17V7C16.5 7 16.5 7 16.5 6.94ZM10.5 3.41L13.09 6H11.5C11.2348 6 10.9804 5.89464 10.7929 5.70711C10.6054 5.51957 10.5 5.26522 10.5 5V3.41ZM14.5 17C14.5 17.2652 14.3946 17.5196 14.2071 17.7071C14.0196 17.8946 13.7652 18 13.5 18H3.5C3.23478 18 2.98043 17.8946 2.79289 17.7071C2.60536 17.5196 2.5 17.2652 2.5 17V3C2.5 2.73478 2.60536 2.48043 2.79289 2.29289C2.98043 2.10536 3.23478 2 3.5 2H8.5V5C8.5 5.79565 8.81607 6.55871 9.37868 7.12132C9.94129 7.68393 10.7044 8 11.5 8H14.5V17ZM8.5 9.34C7.88003 9.00234 7.15873 8.90072 6.46961 9.05394C5.78048 9.20717 5.1702 9.60486 4.75172 10.1734C4.33324 10.7419 4.1349 11.4429 4.19342 12.1464C4.25194 12.8499 4.56334 13.5084 5.07 14L7.79 16.72C7.88296 16.8137 7.99356 16.8881 8.11542 16.9389C8.23728 16.9897 8.36799 17.0158 8.5 17.0158C8.63201 17.0158 8.76272 16.9897 8.88458 16.9389C9.00644 16.8881 9.11704 16.8137 9.21 16.72L11.93 14C12.4367 13.5084 12.7481 12.8499 12.8066 12.1464C12.8651 11.4429 12.6668 10.7419 12.2483 10.1734C11.8298 9.60486 11.2195 9.20717 10.5304 9.05394C9.84127 8.90072 9.11997 9.00234 8.5 9.34V9.34ZM10.5 11.27C10.6722 11.4425 10.7689 11.6763 10.7689 11.92C10.7689 12.1637 10.6722 12.3975 10.5 12.57L8.5 14.57L6.5 12.57C6.3278 12.3975 6.23108 12.1637 6.23108 11.92C6.23108 11.6763 6.3278 11.4425 6.5 11.27C6.67249 11.0978 6.90626 11.0011 7.15 11.0011C7.39374 11.0011 7.62751 11.0978 7.8 11.27C7.89296 11.3637 8.00356 11.4381 8.12542 11.4889C8.24728 11.5397 8.37799 11.5658 8.51 11.5658C8.64201 11.5658 8.77272 11.5397 8.89458 11.4889C9.01644 11.4381 9.12704 11.3637 9.22 11.27C9.39161 11.1038 9.62112 11.0109 9.86 11.0109C10.0989 11.0109 10.3284 11.1038 10.5 11.27Z" fill="#454545"/>
</svg>
